<?xml version="1.0" encoding="utf-8"?>
<!DOCTYPE svg PUBLIC "-//W3C//DTD SVG 1.1//EN" "http://www.w3.org/Graphics/SVG/1.1/DTD/svg11.dtd">
<svg version="1.1" xmlns="http://www.w3.org/2000/svg" fill="#fff" xmlns:xlink="http://www.w3.org/1999/xlink" x="0px" y="0px" viewBox="0 0 1000 1000" enable-background="new 0 0 1000 1000" xml:space="preserve">
<g><g transform="translate(0.000000,511.000000) scale(0.100000,-0.100000)"><path d="M3898.4,3853.7c-191.7-21.1-406.4-70.9-600-138c-715-253-1314.9-849.1-1562.2-1552.6l-51.8-147.6l-138-40.2c-302.9-92-590.4-268.3-837.7-515.6C187.4,938.2-13.8,229,162.5-463c164.8-649.8,667.1-1207.6,1288.1-1433.8l116.9-42.2l13.4-122.7c47.9-473.4,352.7-904.7,787.8-1121.3c208.9-103.5,389.1-138,642.1-126.5c318.2,15.3,592.3,120.8,841.5,322c63.3,51.8,118.8,93.9,122.7,93.9c1.9,0,74.8-69,159.1-151.4c251.1-247.2,596.1-448.5,908.6-529c214.7-55.6,316.3-69,548.2-69c341.2,0,573.1,55.6,879.8,207c377.6,187.9,665.1,456.2,876,818.5c44.1,74.8,82.4,139.9,84.3,141.8c1.9,3.8,99.7-3.8,214.7-17.3c605.7-69,1240.2,159.1,1683,603.8c182.1,184,287.5,335.4,402.5,575c134.2,283.7,170.6,460,168.7,835.8c-1.9,277.9-7.7,339.3-51.8,502.2c-147.6,553.9-509.9,1027.4-992.9,1297.7c-103.5,57.5-109.3,65.2-120.8,151.4c-19.2,136.1-111.2,389.1-205.1,554c-159.1,279.8-486.9,577-774.4,705.4c-231.9,101.6-396.8,134.2-699.6,132.3c-304.8,0-435.1-23-686.2-126.5c-76.7-32.6-141.8-55.6-145.7-51.8c-1.9,3.8-38.3,55.6-78.6,113.1c-226.2,322-567.4,613.4-939.2,801.2C4824.2,3790.5,4285.6,3895.9,3898.4,3853.7z M4435.1,3518.3c203.2-30.7,469.6-111.2,630.6-193.6c329.7-164.8,642.1-440.9,837.6-739.9c63.3-97.7,134.2-201.3,155.3-230c61.3-78.6,143.8-70.9,302.9,23c70.9,44.1,197.4,101.6,281.8,128.4c132.3,44.1,187.8,51.7,392.9,51.7c277.9,1.9,421.7-32.6,680.5-166.7c184-95.8,448.5-345,544.4-515.6c78.6-139.9,153.3-360.4,166.7-494.5c21.1-199.4,34.5-222.4,174.4-287.5C9250.1,786.8,9633.5,163.8,9599-526.2c-38.3-791.6-563.6-1441.4-1311.1-1621.6c-237.7-57.5-548.2-57.5-784,1.9c-153.3,38.3-180.2,40.2-228.1,17.2c-30.7-15.3-61.3-40.2-69-55.6c-7.7-15.3-49.9-101.6-92-191.7c-161-337.4-419.8-600-759.1-768.6c-235.8-117-437-168.7-699.6-184c-592.3-30.7-1173.1,254.9-1487.5,732.2c-126.5,193.6-222.4,193.6-373.8-1.9c-253-320.1-653.6-467.7-1037-383.3c-205.1,46-400.6,145.7-532.9,272.2c-224.3,212.8-302.9,392.9-323.9,739.9c-15.3,268.3-26.8,285.6-208.9,331.6c-157.2,38.3-400.6,151.4-552,253c-145.7,99.6-381.4,346.9-471.5,496.4C570.8-729.4,490.3-518.6,452-326.9c-46,218.5-30.7,621,28.8,826.2c170.6,596.1,626.8,1035.1,1244,1196.1c97.8,24.9,189.8,57.5,205.1,72.9c15.3,15.3,44.1,86.3,63.3,159.1c107.3,381.4,306.7,715,598,998.7c182.1,174.4,322,274.1,544.4,385.3C3536.1,3512.5,3990.4,3585.4,4435.1,3518.3z"/><path d="M3731.6,1400.2c-207-36.4-440.9-197.4-559.7-387.2c-76.7-118.8-122.7-285.6-122.7-439V441.8h151.4h149.5l13.4,149.5c28.8,343.1,237.7,529,557.8,496.5c262.6-26.8,412.1-197.4,427.4-486.9l9.6-159.1h159.1h161v95.8C4678.5,1064.7,4218.5,1484.5,3731.6,1400.2z"/><path d="M6185.1,1400.2c-207-36.4-440.9-197.4-559.7-387.2c-76.7-118.8-122.7-285.6-122.7-439V441.8h151.4h149.5l13.4,149.5c28.8,343.1,237.7,529,557.8,496.5c262.6-26.8,412.1-197.4,427.4-486.9l9.6-159.1H6971h161v93.9C7132.1,1064.7,6672,1484.5,6185.1,1400.2z"/><path d="M2794.3,248.2c-113.1-26.8-260.7-109.2-360.4-203.2c-258.8-243.4-268.4-584.6-21.1-835.7c237.7-241.5,563.5-306.7,858.7-168.7c354.6,164.9,504.1,517.5,350.8,822.3C3478.6,152.3,3112.5,322.9,2794.3,248.2z M3135.5-77.7c99.7-28.8,212.8-141.8,230-233.8c46-243.4-138-410.2-435.1-392.9C2687-691.1,2570-601,2554.7-409.3C2533.6-148.6,2811.6,12.4,3135.5-77.7z"/><path d="M7036.2,242.4c-210.8-57.5-400.6-203.2-494.5-385.3c-70.9-132.3-72.8-343.1-5.8-469.6c70.9-134.2,128.4-201.3,239.6-277.9c302.9-208.9,670.9-184,954.6,65.2c205.1,182.1,264.5,454.3,149.5,688.1C7732,158.1,7352.5,328.7,7036.2,242.4z M7406.2-83.4c97.8-36.4,145.7-80.5,189.8-182.1c74.7-166.8-5.8-346.9-185.9-415.9c-120.8-46-360.4-30.7-456.2,28.8c-141.9,86.3-191.7,274.1-113.1,423.6c53.7,101.6,205.1,172.5,366.1,172.5C7275.8-58.5,7365.9-70,7406.2-83.4z"/><path d="M3902.2-1091.7L3633.9-1360l115-115l115-115l101.6,101.6l103.5,103.5l203.2-103.5c509.9-254.9,1056.2-268.4,1518.1-34.5c113.1,57.5,182.1,105.4,369.9,262.6l53.7,44.1l-107.3,120.8l-109.3,120.8l-80.5-74.7c-164.8-151.4-345-253-527.1-293.3c-128.4-28.8-502.2-23-649.8,11.5c-126.5,28.8-425.5,157.2-425.5,182.1c0,7.7,21.1,32.6,47.9,57.5l47.9,46l-109.3,111.2c-61.3,61.3-115,111.2-120.8,111.2S4049.8-944.1,3902.2-1091.7z"/></g></g>
</svg>